<?xml version="1.0" encoding="utf-8"?>
<!-- Generator: Adobe Illustrator 16.0.0, SVG Export Plug-In . SVG Version: 6.00 Build 0)  -->
<!DOCTYPE svg PUBLIC "-//W3C//DTD SVG 1.1//EN" "http://www.w3.org/Graphics/SVG/1.1/DTD/svg11.dtd">
<svg version="1.1" id="Шар_1" xmlns="http://www.w3.org/2000/svg" xmlns:xlink="http://www.w3.org/1999/xlink" x="0px" y="0px"
	 width="250px" height="130px" viewBox="0 0 250 130" enable-background="new 0 0 250 130" xml:space="preserve">
<g>
	<path fill="#23354A" d="M5,3h30c2.8,0,5,2.2,5,5v30c0,2.8-2.2,5-5,5H5c-2.8,0-5-2.2-5-5V8C0,5.2,2.2,3,5,3z"/>
	<path fill="#4C75A3" d="M5,0h30c2.8,0,5,2.2,5,5v30c0,2.8-2.2,5-5,5H5c-2.8,0-5-2.2-5-5V5C0,2.2,2.2,0,5,0z"/>
	<path fill="#FFFFFF" d="M28.8,25.4c0-0.1,0-0.1-0.1-0.1c-0.3-0.6-1-1.4-2-2.4l0,0l0,0l0,0l0,0c-0.4-0.4-0.7-0.7-0.8-0.9
		c-0.2-0.3-0.3-0.6-0.1-0.9c0.1-0.2,0.4-0.7,0.9-1.4c0.3-0.4,0.5-0.7,0.7-0.9c1.2-1.6,1.7-2.7,1.6-3.1l-0.1-0.1
		c0-0.1-0.1-0.1-0.3-0.2c-0.2-0.1-0.4-0.1-0.7,0h-3c0,0-0.1,0-0.2,0c-0.1,0-0.1,0-0.1,0h-0.1l0,0l-0.1,0.1c0,0.1-0.1,0.1-0.1,0.2
		c-0.3,0.9-0.7,1.7-1.1,2.4c-0.3,0.4-0.5,0.8-0.7,1.1c-0.2,0.3-0.4,0.6-0.5,0.7s-0.3,0.3-0.4,0.4c-0.1,0.1-0.2,0.1-0.3,0.1
		c-0.1,0-0.1,0-0.2,0c-0.1-0.1-0.2-0.2-0.2-0.3c-0.1-0.1-0.1-0.2-0.1-0.4c0-0.2,0-0.3,0-0.4c0-0.1,0-0.3,0-0.5c0-0.2,0-0.4,0-0.4
		c0-0.3,0-0.6,0-0.9s0-0.6,0-0.8c0-0.2,0-0.4,0-0.6c0-0.2,0-0.4,0-0.5s-0.1-0.2-0.1-0.3c0-0.1-0.1-0.2-0.2-0.3s-0.2-0.1-0.3-0.1
		c-0.4-0.1-0.8-0.1-1.4-0.1c-1.3,0-2.1,0.1-2.5,0.3c-0.1,0.1-0.3,0.2-0.4,0.3c-0.1,0.2-0.1,0.2-0.1,0.3c0.4,0.1,0.7,0.2,0.9,0.5
		l0.1,0.1c0,0.1,0.1,0.3,0.1,0.5c0,0.2,0.1,0.5,0.1,0.8c0,0.5,0,1,0,1.3c0,0.3-0.1,0.7-0.1,0.9c0,0.2-0.1,0.4-0.1,0.5
		c-0.1,0.1-0.1,0.2-0.1,0.2s0,0-0.1,0.1c-0.1,0-0.2,0.1-0.3,0.1c-0.1,0-0.2,0-0.4-0.1c-0.2-0.1-0.3-0.2-0.4-0.4
		c-0.1-0.2-0.3-0.4-0.5-0.7s-0.4-0.7-0.6-1.1L14,17.9c-0.1-0.2-0.2-0.5-0.4-0.9c-0.2-0.4-0.3-0.7-0.5-1.1c-0.1-0.1-0.1-0.3-0.3-0.3
		h-0.1c0,0-0.1-0.1-0.2-0.1s-0.2-0.1-0.2-0.1H9.4c-0.3,0-0.5,0.1-0.6,0.2v0.1c0,0,0,0.1,0,0.2s0,0.2,0.1,0.3c0.4,1,0.9,2,1.4,2.9
		s0.9,1.7,1.3,2.2c0.4,0.6,0.7,1.1,1.1,1.6c0.4,0.5,0.6,0.8,0.7,1c0.1,0.1,0.2,0.2,0.3,0.3l0.3,0.3c0.2,0.2,0.4,0.4,0.7,0.6
		c0.3,0.2,0.7,0.5,1.1,0.7c0.4,0.2,0.8,0.4,1.4,0.6c0.5,0.1,1,0.2,1.5,0.2h1.2c0.2,0,0.4-0.1,0.6-0.2v-0.1c0,0,0.1-0.1,0.1-0.2
		s0-0.2,0-0.3c0-0.3,0-0.6,0.1-0.8c0.1-0.2,0.1-0.4,0.2-0.6c0.1-0.1,0.1-0.2,0.2-0.3s0.1-0.1,0.2-0.2h0.1c0.2-0.1,0.4,0,0.6,0.2
		c0.2,0.2,0.4,0.4,0.6,0.6c0.2,0.2,0.4,0.5,0.7,0.8c0.3,0.3,0.5,0.5,0.7,0.7l0.2,0.1c0.1,0.1,0.3,0.2,0.5,0.2
		c0.2,0.1,0.4,0.1,0.6,0.1H28c0.3,0,0.5,0,0.6-0.1s0.2-0.2,0.3-0.3c0-0.1,0-0.2,0-0.4C28.9,25.6,28.8,25.5,28.8,25.4z"/>
</g>
<g>
	<path fill="#084772" d="M47,3h30c2.8,0,5,2.2,5,5v30c0,2.8-2.2,5-5,5H47c-2.8,0-5-2.2-5-5V8C42,5.2,44.2,3,47,3z"/>
	<path fill="#0962CC" d="M47,0h30c2.8,0,5,2.2,5,5v30c0,2.8-2.2,5-5,5H47c-2.8,0-5-2.2-5-5V5C42,2.2,44.2,0,47,0z"/>
	<path fill="#F29B0D" d="M61.7,14.4c1.5,0,3,0.7,4,1.7l0,0c0-0.5,0.3-0.9,0.8-0.9h0.1c0.7,0,0.9,0.7,0.9,0.9v7.8
		c-0.1,0.5,0.5,0.8,0.9,0.4c1.3-1.3,2.8-6.6-0.8-9.7c-3.3-2.9-7.8-2.4-10.2-0.8c-2.5,1.7-4.1,5.5-2.6,9.1c1.7,3.9,6.6,5.1,9.5,3.9
		c1.5-0.6,2.2,1.4,0.6,2c-2.3,1-8.7,0.9-11.8-4.3c-2-3.5-1.9-9.6,3.5-12.8c4.1-2.4,9.6-1.8,12.8,1.6c3.4,3.5,3.2,10.2-0.1,12.8
		c-1.5,1.2-3.8,0-3.7-1.7v-0.6c-1,1-2.5,1.6-4,1.6c-3,0-5.7-2.6-5.7-5.6C56,17.1,58.6,14.4,61.7,14.4L61.7,14.4z M65.5,19.9
		c-0.1-2.2-1.8-3.5-3.7-3.5h-0.1c-2.3,0-3.6,1.8-3.6,3.8c0,2.3,1.5,3.7,3.5,3.7c2.2,0,3.7-1.6,3.8-3.6v-0.4H65.5z"/>
</g>
<g>
	<path fill="#753F0F" d="M89,3h30c2.8,0,5,2.2,5,5v30c0,2.8-2.2,5-5,5H89c-2.8,0-5-2.2-5-5V8C84,5.2,86.2,3,89,3z"/>
	<path fill="#F58220" d="M89,0h30c2.8,0,5,2.2,5,5v30c0,2.8-2.2,5-5,5H89c-2.8,0-5-2.2-5-5V5C84,2.2,86.2,0,89,0z"/>
	<g>
		<g>
			<path fill="#FFFFFF" d="M109.6,22.1c0.4-0.4,0.4-0.9,0.1-1.5c-0.3-0.5-0.8-0.7-1.3-0.5c-0.3,0.1-0.5,0.2-0.7,0.4
				c-2.2,1.5-5.2,1.5-7.4-0.1c-0.1-0.1-0.2-0.1-0.3-0.2c-0.6-0.3-1.2-0.2-1.5,0.4c-0.4,0.6-0.4,1.2,0.2,1.7c0.1,0.1,0.3,0.2,0.4,0.4
				c1.2,0.9,2.6,1.3,4.1,1.5c-0.1,0.1-0.2,0.2-0.3,0.3c-1.1,1.1-2.2,2.3-3.4,3.4C99.2,28,99,28.3,99,28.6c0,0.5,0.3,1,0.8,1.3
				c0.5,0.2,0.9,0.2,1.3-0.2c0.9-0.9,1.8-1.8,2.6-2.7c0.2-0.2,0.3-0.3,0.6,0c0.8,0.9,1.7,1.7,2.6,2.6c0.2,0.2,0.5,0.4,0.8,0.4
				c0.5,0,1-0.3,1.3-0.8c0.2-0.5,0.1-1-0.3-1.3c-1.1-1.2-2.3-2.3-3.4-3.5c-0.1-0.1-0.1-0.1-0.3-0.3c0.8-0.1,1.7-0.3,2.4-0.6
				C108.3,23.2,109,22.7,109.6,22.1z M104,20.1c2.8,0,5-2.2,5-5c0-2.8-2.2-5.1-5-5.1s-5,2.2-5,5.1C99,17.8,101.2,20.1,104,20.1z
				 M104,12.6c1.4,0,2.4,1.1,2.4,2.5s-1.1,2.5-2.4,2.5c-1.4,0-2.4-1.1-2.5-2.5C101.6,13.7,102.6,12.6,104,12.6z"/>
		</g>
	</g>
</g>
<g>
	<path fill="#185989" d="M131,3h30c2.8,0,5,2.2,5,5v30c0,2.8-2.2,5-5,5h-30c-2.8,0-5-2.2-5-5V8C126,5.2,128.2,3,131,3z"/>
</g>
<g>
	<path fill="#8C2828" d="M173,3h30c2.8,0,5,2.2,5,5v30c0,2.8-2.2,5-5,5h-30c-2.8,0-5-2.2-5-5V8C168,5.2,170.2,3,173,3z"/>
	<path fill="#BA3232" d="M173,0h30c2.8,0,5,2.2,5,5v30c0,2.8-2.2,5-5,5h-30c-2.8,0-5-2.2-5-5V5C168,2.2,170.2,0,173,0z"/>
	<path fill="#FFFFFF" d="M188.8,11.9l1.8-0.2v9.1H189.2c-0.8,0-1.601-0.3-2-1c-0.5-0.7-1.2-1.4-1.2-3.3
		C185.9,12.6,188.5,11.9,188.8,11.9L188.8,11.9z M192.7,10c0,0-2.2,0-3.7,0c-2.3,0-5.1,2.5-5.1,6.6s3.5,5.7,3.5,5.7l-4.2,7.7h2
		l3.899-7.5h1.5V30h2.101V10L192.7,10z"/>
</g>
<g>
	<path fill="#808080" d="M215,3h30c2.8,0,5,2.2,5,5v30c0,2.8-2.2,5-5,5h-30c-2.8,0-5-2.2-5-5V8C210,5.2,212.2,3,215,3z"/>
	<path fill="#FFFFFF" d="M215,0h30c2.8,0,5,2.2,5,5v30c0,2.8-2.2,5-5,5h-30c-2.8,0-5-2.2-5-5V5C210,2.2,212.2,0,215,0z"/>
	<g>
		<path fill="#E3E3E3" d="M238.9,27.7h-17.5c-0.7,0-1.2-0.6-1.2-1.2V13.8c0-0.7,0.6-1.2,1.2-1.2h17.5c0.699,0,1.199,0.6,1.199,1.2
			v12.6C240.2,27.2,239.6,27.7,238.9,27.7L238.9,27.7z"/>
		<path opacity="0.1" fill="#231F20" enable-background="new    " d="M222.7,27.7l7.5-6l0.1-0.3l-7.7-5.5v11.6L222.7,27.7z"/>
		<path fill="#D54B3D" d="M221.4,27.7c-0.7,0-1.2-0.6-1.2-1.2V13.8c0-0.7,0.6-0.8,1.2-0.8c0.6,0,1.199,0.1,1.199,0.8v13.9H221.4
			L221.4,27.7z"/>
		<path fill="#D72B27" d="M221.4,13.2c0.898,0,1.1,0.3,1.1,0.6v13.7h-1.1c-0.602,0-1.102-0.5-1.102-1.1V13.8
			C220.4,13.4,220.5,13.2,221.4,13.2L221.4,13.2z M221.4,13c-0.7,0-1.2,0.1-1.2,0.8v12.6c0,0.7,0.6,1.2,1.2,1.2h1.199V13.8
			C222.7,13.1,222.1,13,221.4,13L221.4,13L221.4,13z"/>
		<path fill="#D54B3D" d="M238.9,27.7h-1.2V13.8c0-0.7,0.6-0.8,1.2-0.8c0.6,0,1.199,0.1,1.199,0.8v12.7
			C240.2,27.2,239.6,27.7,238.9,27.7L238.9,27.7z"/>
		<path fill="#D72B27" d="M238.9,13.2c0.8,0,1.1,0.2,1.1,0.6v12.7c0,0.6-0.5,1.1-1.1,1.1H237.8V13.8
			C237.8,13.3,238.1,13.2,238.9,13.2L238.9,13.2z M238.9,13c-0.7,0-1.2,0.1-1.2,0.8v13.9h1.2c0.699,0,1.199-0.6,1.199-1.3V13.8
			C240.2,13.1,239.6,13,238.9,13L238.9,13L238.9,13z"/>
		
			<linearGradient id="SVGID_1_" gradientUnits="userSpaceOnUse" x1="144.6504" y1="41.252" x2="144.728" y2="41.252" gradientTransform="matrix(253.1598 0 0 -174.8345 -36399.3906 7233.1475)">
			<stop  offset="0" style="stop-color:#000000;stop-opacity:0.1"/>
			<stop  offset="1" style="stop-color:#000000;stop-opacity:0.2"/>
		</linearGradient>
		<path fill="url(#SVGID_1_)" d="M233.6,27.7l-13.3-13.4l0.7,0.3l9.2,6.7L240.1,14v12.5c0,0.7-0.6,1.2-1.199,1.2H233.6z"/>
		<path fill="#D54B3D" d="M230.1,21.7l-9.398-6.8c-0.602-0.4-0.7-1.2-0.301-1.7c0.399-0.6,1.199-0.7,1.801-0.3l8,5.8l8-5.9
			c0.6-0.4,1.3-0.3,1.699,0.3s0.301,1.3-0.301,1.7L230.1,21.7L230.1,21.7z"/>
		<path fill="#D72B27" d="M238.9,12.7L238.9,12.7c0.3,0,0.699,0.2,0.898,0.4c0.301,0.5,0.2,1.1-0.199,1.5l-9.399,6.8l-9.3-6.8
			c-0.5-0.4-0.602-1-0.301-1.5c0.199-0.3,0.5-0.4,0.899-0.4c0.2,0,0.5,0.1,0.601,0.2l8,5.8l0.101,0.1l0.1-0.1l8-5.9
			C238.5,12.8,238.7,12.7,238.9,12.7L238.9,12.7z M238.9,12.5c-0.301,0-0.5,0.1-0.7,0.2l-8,5.9l-8-5.8c-0.2-0.2-0.5-0.2-0.8-0.2
			c-0.4,0-0.801,0.2-1,0.5c-0.4,0.6-0.2,1.3,0.3,1.7l9.399,6.9l9.5-6.9c0.601-0.4,0.699-1.2,0.301-1.7
			C239.7,12.7,239.3,12.5,238.9,12.5L238.9,12.5L238.9,12.5z"/>
	</g>
</g>
<g>
	<path fill="#487399" d="M5,90h30c2.8,0,5,2.2,5,5v30c0,2.8-2.2,5-5,5H5c-2.8,0-5-2.2-5-5V95C0,92.2,2.2,90,5,90z"/>
	<path fill="#FFFFFF" d="M28.8,115.4c0-0.102,0-0.102-0.1-0.102c-0.3-0.6-1-1.398-2-2.398l0,0l0,0l0,0l0,0c-0.4-0.4-0.7-0.7-0.8-0.9
		c-0.2-0.3-0.3-0.6-0.1-0.9c0.1-0.199,0.4-0.699,0.9-1.398c0.3-0.4,0.5-0.7,0.7-0.9c1.2-1.6,1.7-2.699,1.6-3.1l-0.1-0.102
		c0-0.1-0.1-0.1-0.3-0.199c-0.2-0.101-0.4-0.101-0.7,0h-3c0,0-0.1,0-0.2,0c-0.1,0-0.1,0-0.1,0h-0.1l0,0l-0.1,0.101
		c0,0-0.1,0.101-0.1,0.2c-0.3,0.898-0.7,1.699-1.1,2.398c-0.3,0.4-0.5,0.801-0.7,1.102c-0.2,0.3-0.4,0.6-0.5,0.699
		c-0.1,0.101-0.3,0.301-0.4,0.399c-0.1,0.101-0.2,0.101-0.3,0.101c-0.1,0-0.1,0-0.2,0c-0.1-0.101-0.2-0.199-0.2-0.301
		c-0.1-0.1-0.1-0.199-0.1-0.398c0-0.2,0-0.301,0-0.4s0-0.3,0-0.5c0-0.199,0-0.398,0-0.398c0-0.301,0-0.602,0-0.9s0-0.6,0-0.8
		s0-0.4,0-0.601c0-0.199,0-0.399,0-0.5s-0.1-0.199-0.1-0.301c0-0.1-0.1-0.199-0.2-0.3s-0.2-0.101-0.3-0.101
		c-0.4-0.101-0.8-0.101-1.4-0.101c-1.3,0-2.1,0.101-2.5,0.3c-0.1,0.102-0.3,0.2-0.4,0.301c-0.1,0.199-0.1,0.199-0.1,0.301
		c0.4,0.1,0.7,0.199,0.9,0.5l0.1,0.1c0,0.102,0.1,0.301,0.1,0.5c0,0.2,0.1,0.5,0.1,0.801c0,0.5,0,1,0,1.301
		c0,0.3-0.1,0.699-0.1,0.898c0,0.2-0.1,0.4-0.1,0.5c-0.1,0.102-0.1,0.2-0.1,0.2s0,0-0.1,0.101c-0.1,0-0.2,0.101-0.3,0.101
		c-0.1,0-0.2,0-0.4-0.101c-0.2-0.101-0.3-0.199-0.4-0.399s-0.3-0.4-0.5-0.7s-0.4-0.7-0.6-1.1l-0.2-0.301
		c-0.1-0.199-0.2-0.5-0.4-0.899c-0.2-0.4-0.3-0.7-0.5-1.101c-0.1-0.101-0.1-0.301-0.3-0.301h-0.1c0,0-0.1-0.1-0.2-0.1
		c-0.1,0-0.2-0.102-0.2-0.102H9.6c-0.3,0-0.5,0.102-0.6,0.2v0.101c0,0,0,0.101,0,0.199c0,0.102,0,0.2,0.1,0.301
		c0.4,1,0.9,2,1.4,2.899c0.5,0.9,0.9,1.7,1.3,2.2c0.4,0.6,0.7,1.1,1.1,1.6s0.6,0.801,0.7,1c0.1,0.102,0.2,0.2,0.3,0.301l0.3,0.301
		c0.2,0.199,0.4,0.398,0.7,0.6c0.3,0.2,0.7,0.5,1.1,0.7s0.8,0.399,1.4,0.601c0.5,0.101,1,0.199,1.5,0.199h1.2
		c0.2,0,0.4-0.1,0.6-0.199v-0.101c0,0,0.1-0.101,0.1-0.2s0-0.199,0-0.3c0-0.3,0-0.601,0.1-0.8c0.1-0.2,0.1-0.4,0.2-0.602
		c0.1-0.1,0.1-0.199,0.2-0.3c0.1-0.1,0.1-0.1,0.2-0.2h0.1c0.2-0.1,0.4,0,0.6,0.2c0.2,0.2,0.4,0.4,0.6,0.601
		c0.2,0.199,0.4,0.5,0.7,0.801c0.3,0.3,0.5,0.5,0.7,0.699l0.2,0.101c0.1,0.101,0.3,0.2,0.5,0.2c0.2,0.1,0.4,0.1,0.6,0.1h2.7
		c0.3,0,0.5,0,0.6-0.1c0.1-0.102,0.2-0.2,0.3-0.301c0-0.101,0-0.199,0-0.399C28.9,115.6,28.8,115.5,28.8,115.4z"/>
</g>
<g>
	<path fill="#095EB2" d="M47,90h30c2.8,0,5,2.2,5,5v30c0,2.8-2.2,5-5,5H47c-2.8,0-5-2.2-5-5V95C42,92.2,44.2,90,47,90z"/>
	<path fill="#F29B0D" d="M61.7,104.4c1.5,0,3,0.699,4,1.699l0,0c0-0.5,0.3-0.899,0.8-0.899h0.1c0.7,0,0.9,0.7,0.9,0.899v7.801
		c-0.1,0.5,0.5,0.8,0.9,0.398c1.3-1.3,2.8-6.6-0.8-9.699c-3.3-2.899-7.8-2.399-10.2-0.801c-2.5,1.7-4.1,5.5-2.6,9.102
		c1.7,3.898,6.6,5.1,9.5,3.898c1.5-0.6,2.2,1.4,0.6,2c-2.3,1-8.7,0.9-11.8-4.3c-2-3.5-1.9-9.601,3.5-12.8
		c4.1-2.4,9.6-1.801,12.8,1.6c3.4,3.5,3.2,10.2-0.1,12.801c-1.5,1.199-3.8,0-3.7-1.699V113.8c-1,1-2.5,1.601-4,1.601
		c-3,0-5.7-2.601-5.7-5.601C56,107.1,58.6,104.4,61.7,104.4L61.7,104.4z M65.5,109.9c-0.1-2.2-1.8-3.5-3.7-3.5h-0.1
		c-2.3,0-3.6,1.8-3.6,3.8c0,2.3,1.5,3.7,3.5,3.7c2.2,0,3.7-1.602,3.8-3.602V109.9H65.5z"/>
</g>
<g>
	<path fill="#E07220" d="M89,90h30c2.8,0,5,2.2,5,5v30c0,2.8-2.2,5-5,5H89c-2.8,0-5-2.2-5-5V95C84,92.2,86.2,90,89,90z"/>
	<g>
		<g>
			<path fill="#FFFFFF" d="M109.6,112.1c0.4-0.398,0.4-0.898,0.1-1.5c-0.3-0.5-0.8-0.699-1.3-0.5c-0.3,0.102-0.5,0.2-0.7,0.4
				c-2.2,1.5-5.2,1.5-7.4-0.1c-0.1-0.102-0.2-0.102-0.3-0.2c-0.6-0.3-1.2-0.2-1.5,0.399c-0.4,0.601-0.4,1.199,0.2,1.699
				c0.1,0.102,0.3,0.2,0.4,0.4c1.2,0.898,2.6,1.3,4.1,1.5c-0.1,0.1-0.2,0.199-0.3,0.3c-1.1,1.101-2.2,2.3-3.4,3.399
				c-0.2,0.199-0.4,0.5-0.4,0.801c0,0.5,0.3,1,0.8,1.3c0.5,0.2,0.9,0.2,1.3-0.2c0.9-0.898,1.8-1.8,2.6-2.699
				c0.2-0.199,0.3-0.301,0.6,0c0.8,0.899,1.7,1.699,2.6,2.601c0.2,0.2,0.5,0.399,0.8,0.399c0.5,0,1-0.301,1.3-0.801
				c0.2-0.5,0.1-1-0.3-1.3c-1.1-1.2-2.3-2.3-3.4-3.5c-0.1-0.101-0.1-0.101-0.3-0.3c0.8-0.102,1.7-0.301,2.4-0.602
				C108.3,113.2,109,112.7,109.6,112.1z M104,110.1c2.8,0,5-2.199,5-5c0-2.8-2.2-5.1-5-5.1s-5,2.3-5,5.1
				C99,107.8,101.2,110.1,104,110.1z M104,102.6c1.4,0,2.4,1.102,2.4,2.5c0,1.4-1.1,2.5-2.4,2.5c-1.4,0-2.4-1.1-2.5-2.5
				C101.6,103.7,102.6,102.6,104,102.6z"/>
		</g>
	</g>
</g>
<g>
	<path fill="#1376E2" d="M131,90h30c2.8,0,5,2.2,5,5v30c0,2.8-2.2,5-5,5h-30c-2.8,0-5-2.2-5-5V95C126,92.2,128.2,90,131,90z"/>
	<path fill="#FFFFFF" d="M143.7,104c0,0.5,0,2.8,0,2.8H141.6v3.4h2.102v10h4.199v-10h2.801c0,0,0.3-1.601,0.398-3.4
		c-0.398,0-3.199,0-3.199,0s0-2,0-2.3s0.5-0.8,0.899-0.8c0.4,0,1.4,0,2.3,0c0-0.5,0-2,0-3.5c-1.199,0-2.5,0-3.1,0
		C143.6,100.1,143.7,103.5,143.7,104z"/>
</g>
<g>
	<path fill="#A82F2F" d="M173,90h30c2.8,0,5,2.2,5,5v30c0,2.8-2.2,5-5,5h-30c-2.8,0-5-2.2-5-5V95C168,92.2,170.2,90,173,90z"/>
	<path fill="#FFFFFF" d="M188.8,101.9l1.8-0.2v9.1H189.2c-0.8,0-1.601-0.3-2-1c-0.5-0.7-1.2-1.399-1.2-3.3
		C185.9,102.6,188.5,101.9,188.8,101.9L188.8,101.9z M192.7,100c0,0-2.2,0-3.7,0c-2.3,0-5.1,2.5-5.1,6.6c0,4.102,3.5,5.7,3.5,5.7
		l-4.2,7.7h2l3.899-7.5h1.5v7.5h2.101V100L192.7,100z"/>
</g>
<g>
	<path fill="#EFEFEF" d="M215,90h30c2.8,0,5,2.2,5,5v30c0,2.8-2.2,5-5,5h-30c-2.8,0-5-2.2-5-5V95C210,92.2,212.2,90,215,90z"/>
	<g>
		<path fill="#E3E3E3" d="M238.9,117.7h-17.5c-0.7,0-1.2-0.601-1.2-1.2v-12.6c0-0.7,0.6-1.2,1.2-1.2h17.5
			c0.699,0,1.199,0.6,1.199,1.2v12.6C240.2,117.2,239.6,117.7,238.9,117.7L238.9,117.7z"/>
		<path opacity="0.1" fill="#231F20" enable-background="new    " d="M222.7,117.7l7.5-6l0.1-0.3l-7.7-5.5v11.6L222.7,117.7z"/>
		<path fill="#D54B3D" d="M221.4,117.7c-0.7,0-1.2-0.601-1.2-1.2v-12.6c0-0.7,0.6-0.801,1.2-0.801c0.6,0,1.199,0.101,1.199,0.801
			V117.8H221.4V117.7z"/>
		<path fill="#D72B27" d="M221.4,103.2c0.898,0,1.1,0.3,1.1,0.6v13.7h-1.1c-0.602,0-1.102-0.5-1.102-1.1V103.8
			C220.4,103.4,220.5,103.2,221.4,103.2L221.4,103.2z M221.4,103c-0.7,0-1.2,0.1-1.2,0.8V116.4c0,0.699,0.6,1.199,1.2,1.199h1.199
			V103.7C222.7,103.1,222.1,103,221.4,103L221.4,103L221.4,103z"/>
		<path fill="#D54B3D" d="M238.9,117.7h-1.2v-13.9c0-0.7,0.6-0.8,1.2-0.8c0.6,0,1.199,0.1,1.199,0.8v12.7
			C240.2,117.2,239.6,117.7,238.9,117.7L238.9,117.7z"/>
		<path fill="#D72B27" d="M238.9,103.2c0.8,0,1.1,0.2,1.1,0.6v12.7c0,0.6-0.5,1.1-1.1,1.1H237.8v-13.8
			C237.8,103.3,238.1,103.2,238.9,103.2L238.9,103.2z M238.9,103c-0.7,0-1.2,0.1-1.2,0.8v13.9h1.2c0.699,0,1.199-0.601,1.199-1.3
			v-12.7C240.2,103.1,239.6,103,238.9,103L238.9,103L238.9,103z"/>
		
			<linearGradient id="SVGID_2_" gradientUnits="userSpaceOnUse" x1="144.6504" y1="40.7373" x2="144.728" y2="40.7373" gradientTransform="matrix(253.1598 0 0 -174.8345 -36399.3906 7233.1475)">
			<stop  offset="0" style="stop-color:#000000;stop-opacity:0.1"/>
			<stop  offset="1" style="stop-color:#000000;stop-opacity:0.2"/>
		</linearGradient>
		<path fill="url(#SVGID_2_)" d="M233.6,117.7l-13.3-13.4l0.7,0.3l9.2,6.7l9.899-7.3v12.5c0,0.7-0.601,1.2-1.199,1.2H233.6
			L233.6,117.7z"/>
		<path fill="#D54B3D" d="M230.1,111.7l-9.398-6.8c-0.602-0.4-0.7-1.2-0.301-1.7c0.399-0.601,1.199-0.7,1.801-0.3l8,5.8l8-5.9
			c0.6-0.399,1.3-0.3,1.699,0.3c0.399,0.602,0.301,1.301-0.301,1.7L230.1,111.7L230.1,111.7z"/>
		<path fill="#D72B27" d="M238.9,102.7L238.9,102.7c0.3,0,0.699,0.2,0.898,0.399c0.301,0.5,0.2,1.101-0.199,1.5L230.2,111.4
			l-9.3-6.801c-0.5-0.399-0.602-1-0.301-1.5c0.199-0.301,0.5-0.399,0.899-0.399c0.2,0,0.5,0.1,0.601,0.2l8,5.8l0.101,0.1l0.1-0.1
			l8-5.9C238.5,102.8,238.7,102.7,238.9,102.7L238.9,102.7z M238.9,102.5c-0.301,0-0.5,0.1-0.7,0.2l-8,5.899l-8-5.801
			c-0.2-0.199-0.5-0.199-0.8-0.199c-0.4,0-0.801,0.199-1,0.5c-0.4,0.601-0.2,1.301,0.3,1.699l9.399,6.9l9.5-6.9
			c0.601-0.398,0.699-1.199,0.301-1.699C239.7,102.7,239.3,102.5,238.9,102.5L238.9,102.5L238.9,102.5z"/>
	</g>
</g>
<g>
	<path fill="#23354A" d="M5,48h30c2.8,0,5,2.2,5,5v30c0,2.8-2.2,5-5,5H5c-2.8,0-5-2.2-5-5V53C0,50.2,2.2,48,5,48z"/>
	<path fill="#477096" d="M5,45h30c2.8,0,5,2.2,5,5v30c0,2.8-2.2,5-5,5H5c-2.8,0-5-2.2-5-5V50C0,47.2,2.2,45,5,45z"/>
	<path fill="#FFFFFF" d="M28.8,70.4c0-0.102,0-0.102-0.1-0.102c-0.3-0.6-1-1.398-2-2.398l0,0l0,0l0,0l0,0c-0.4-0.4-0.7-0.7-0.8-0.9
		c-0.2-0.3-0.3-0.6-0.1-0.9c0.1-0.199,0.4-0.7,0.9-1.398c0.3-0.4,0.5-0.7,0.7-0.9c1.2-1.6,1.7-2.7,1.6-3.1l-0.1-0.1
		c0-0.1-0.1-0.1-0.3-0.2c-0.2-0.1-0.4-0.1-0.7,0h-3c0,0-0.1,0-0.2,0c-0.1,0-0.1,0-0.1,0h-0.1l0,0l-0.1,0.1c0,0-0.1,0.1-0.1,0.2
		c-0.3,0.9-0.7,1.7-1.1,2.4c-0.3,0.4-0.5,0.8-0.7,1.1c-0.2,0.3-0.4,0.6-0.5,0.7s-0.3,0.3-0.4,0.4c-0.1,0.1-0.2,0.1-0.3,0.1
		c-0.1,0-0.1,0-0.2,0c-0.1-0.1-0.2-0.2-0.2-0.3c-0.1-0.1-0.1-0.2-0.1-0.4c0-0.2,0-0.3,0-0.4c0-0.1,0-0.3,0-0.5c0-0.2,0-0.4,0-0.4
		c0-0.3,0-0.6,0-0.9s0-0.6,0-0.8c0-0.2,0-0.4,0-0.6c0-0.2,0-0.4,0-0.5s-0.1-0.2-0.1-0.3c0-0.1-0.1-0.2-0.2-0.3s-0.2-0.1-0.3-0.1
		c-0.4-0.1-0.8-0.1-1.4-0.1c-1.3,0-2.1,0.1-2.5,0.3c-0.1,0.1-0.3,0.2-0.4,0.3c-0.1,0.2-0.1,0.2-0.1,0.3c0.4,0.1,0.7,0.2,0.9,0.5
		l0.1,0.1c0,0.1,0.1,0.3,0.1,0.5c0,0.2,0.1,0.5,0.1,0.8c0,0.5,0,1,0,1.3c0,0.3-0.1,0.7-0.1,0.9c0,0.2-0.1,0.4-0.1,0.5
		c-0.1,0.1-0.1,0.2-0.1,0.2s0,0-0.1,0.101c-0.1,0-0.2,0.101-0.3,0.101c-0.1,0-0.2,0-0.4-0.101c-0.2-0.101-0.3-0.201-0.4-0.399
		c-0.1-0.2-0.3-0.4-0.5-0.7s-0.4-0.7-0.6-1.1L14,62.9c-0.1-0.2-0.2-0.5-0.4-0.9c-0.2-0.4-0.3-0.7-0.5-1.1c-0.1-0.1-0.1-0.3-0.3-0.3
		h-0.1c0,0-0.1-0.1-0.2-0.1s-0.2-0.1-0.2-0.1H9.4c-0.3,0-0.5,0.1-0.6,0.2v0.1c0,0,0,0.1,0,0.2s0,0.2,0.1,0.3c0.4,1,0.9,2,1.4,2.9
		s0.9,1.7,1.3,2.2C12,66.9,12.3,67.4,12.7,67.9c0.4,0.5,0.6,0.8,0.7,1c0.1,0.1,0.2,0.199,0.3,0.3l0.3,0.3c0.2,0.2,0.4,0.4,0.7,0.6
		c0.3,0.2,0.7,0.5,1.1,0.7c0.4,0.2,0.8,0.4,1.4,0.601c0.5,0.101,1,0.199,1.5,0.199h1.2c0.2,0,0.4-0.1,0.6-0.199V71.3
		c0,0,0.1-0.1,0.1-0.2c0-0.1,0-0.199,0-0.3c0-0.3,0-0.6,0.1-0.8c0.1-0.2,0.1-0.4,0.2-0.6C21,69.3,21,69.2,21.1,69.1
		c0.1-0.1,0.1-0.1,0.2-0.199h0.1c0.2-0.101,0.4,0,0.6,0.199c0.2,0.2,0.4,0.4,0.6,0.602c0.2,0.199,0.4,0.5,0.7,0.8
		c0.3,0.3,0.5,0.5,0.7,0.7l0.2,0.1c0.1,0.102,0.3,0.2,0.5,0.2c0.2,0.101,0.4,0.101,0.6,0.101H28c0.3,0,0.5,0,0.6-0.101
		s0.2-0.2,0.3-0.3c0-0.102,0-0.2,0-0.4C28.9,70.602,28.8,70.5,28.8,70.4z"/>
</g>
<g>
	<path fill="#084772" d="M47,48h30c2.8,0,5,2.2,5,5v30c0,2.8-2.2,5-5,5H47c-2.8,0-5-2.2-5-5V53C42,50.2,44.2,48,47,48z"/>
	<path fill="#0A65C1" d="M47,45h30c2.8,0,5,2.2,5,5v30c0,2.8-2.2,5-5,5H47c-2.8,0-5-2.2-5-5V50C42,47.2,44.2,45,47,45z"/>
	<path fill="#F29B0D" d="M61.7,59.4c1.5,0,3,0.7,4,1.7l0,0c0-0.5,0.3-0.9,0.8-0.9h0.1c0.7,0,0.9,0.7,0.9,0.9v7.8
		c-0.1,0.5,0.5,0.8,0.9,0.398c1.3-1.3,2.8-6.6-0.8-9.7c-3.3-2.9-7.8-2.4-10.2-0.8c-2.5,1.7-4.1,5.5-2.6,9.102
		c1.7,3.898,6.6,5.1,9.5,3.898c1.5-0.6,2.2,1.4,0.6,2c-2.3,1-8.7,0.9-11.8-4.3c-2-3.5-1.9-9.6,3.5-12.8c4.1-2.4,9.6-1.8,12.8,1.6
		c3.4,3.5,3.2,10.2-0.1,12.801c-1.5,1.199-3.8,0-3.7-1.699V68.8c-1,1-2.5,1.601-4,1.601c-3,0-5.7-2.601-5.7-5.601
		C56,62.1,58.6,59.4,61.7,59.4L61.7,59.4z M65.5,64.9c-0.1-2.2-1.8-3.5-3.7-3.5h-0.1c-2.3,0-3.6,1.8-3.6,3.8c0,2.3,1.5,3.7,3.5,3.7
		c2.2,0,3.7-1.602,3.8-3.5v-0.5H65.5z"/>
</g>
<g>
	<path fill="#753F0F" d="M89,48h30c2.8,0,5,2.2,5,5v30c0,2.8-2.2,5-5,5H89c-2.8,0-5-2.2-5-5V53C84,50.2,86.2,48,89,48z"/>
	<path fill="#EA7721" d="M89,45h30c2.8,0,5,2.2,5,5v30c0,2.8-2.2,5-5,5H89c-2.8,0-5-2.2-5-5V50C84,47.2,86.2,45,89,45z"/>
	<g>
		<g>
			<path fill="#FFFFFF" d="M109.6,67.1c0.4-0.398,0.4-0.898,0.1-1.5c-0.3-0.5-0.8-0.7-1.3-0.5c-0.3,0.1-0.5,0.2-0.7,0.4
				c-2.2,1.5-5.2,1.5-7.4-0.1c-0.1-0.1-0.2-0.1-0.3-0.2c-0.6-0.3-1.2-0.2-1.5,0.399c-0.4,0.601-0.4,1.199,0.2,1.699
				c0.1,0.102,0.3,0.2,0.4,0.4c1.2,0.898,2.6,1.3,4.1,1.5c-0.1,0.1-0.2,0.199-0.3,0.3c-1.1,1.101-2.2,2.3-3.4,3.399
				C99.2,73,99,73.3,99,73.6c0,0.5,0.3,1,0.8,1.301c0.5,0.199,0.9,0.199,1.3-0.199c0.9-0.9,1.8-1.801,2.6-2.7c0.2-0.2,0.3-0.3,0.6,0
				c0.8,0.899,1.7,1.7,2.6,2.601c0.2,0.199,0.5,0.399,0.8,0.399c0.5,0,1-0.3,1.3-0.8c0.2-0.5,0.1-1-0.3-1.301
				c-1.1-1.199-2.3-2.301-3.4-3.5c-0.1-0.101-0.1-0.101-0.3-0.301c0.8-0.1,1.7-0.3,2.4-0.6C108.3,68.2,109,67.7,109.6,67.1z
				 M104,65.1c2.8,0,5-2.2,5-5c0-2.8-2.2-5.1-5-5.1s-5,2.3-5,5.1C99,62.8,101.2,65.1,104,65.1z M104,57.6c1.4,0,2.4,1.1,2.4,2.5
				s-1.1,2.5-2.4,2.5c-1.4,0-2.4-1.1-2.5-2.5C101.6,58.7,102.6,57.6,104,57.6z"/>
		</g>
	</g>
</g>
<g>
	<path fill="#185989" d="M131,48h30c2.8,0,5,2.2,5,5v30c0,2.8-2.2,5-5,5h-30c-2.8,0-5-2.2-5-5V53C126,50.2,128.2,48,131,48z"/>
	<path fill="#2585EF" d="M131,45h30c2.8,0,5,2.2,5,5v30c0,2.8-2.2,5-5,5h-30c-2.8,0-5-2.2-5-5V50C126,47.2,128.2,45,131,45z"/>
	<path fill="#FFFFFF" d="M143.7,59c0,0.5,0,2.8,0,2.8H141.6v3.4h2.102v10h4.199v-10h2.801c0,0,0.3-1.6,0.398-3.4
		c-0.398,0-3.199,0-3.199,0s0-2,0-2.3s0.5-0.8,0.899-0.8c0.4,0,1.4,0,2.3,0c0-0.5,0-2,0-3.5c-1.199,0-2.5,0-3.1,0
		C143.6,55.1,143.7,58.5,143.7,59z"/>
</g>
<g>
	<path fill="#8C2828" d="M173,48h30c2.8,0,5,2.2,5,5v30c0,2.8-2.2,5-5,5h-30c-2.8,0-5-2.2-5-5V53C168,50.2,170.2,48,173,48z"/>
	<path fill="#AD3131" d="M173,45h30c2.8,0,5,2.2,5,5v30c0,2.8-2.2,5-5,5h-30c-2.8,0-5-2.2-5-5V50C168,47.2,170.2,45,173,45z"/>
	<path fill="#FFFFFF" d="M188.8,56.9l1.8-0.2v9.1H189.2c-0.8,0-1.601-0.3-2-1c-0.5-0.7-1.2-1.4-1.2-3.3
		C185.9,57.6,188.5,56.9,188.8,56.9L188.8,56.9z M192.7,55c0,0-2.2,0-3.7,0c-2.3,0-5.1,2.5-5.1,6.6s3.5,5.7,3.5,5.7l-4.2,7.7h2
		l3.899-7.5h1.5V75h2.101V55L192.7,55z"/>
</g>
<g>
	<path fill="#808080" d="M215,48h30c2.8,0,5,2.2,5,5v30c0,2.8-2.2,5-5,5h-30c-2.8,0-5-2.2-5-5V53C210,50.2,212.2,48,215,48z"/>
	<path fill="#F4F4F4" d="M215,45h30c2.8,0,5,2.2,5,5v30c0,2.8-2.2,5-5,5h-30c-2.8,0-5-2.2-5-5V50C210,47.2,212.2,45,215,45z"/>
	<g>
		<path fill="#E3E3E3" d="M238.9,72.7h-17.5c-0.7,0-1.2-0.601-1.2-1.2V58.8c0-0.7,0.6-1.2,1.2-1.2h17.5c0.699,0,1.199,0.6,1.199,1.2
			V71.4C240.2,72.2,239.6,72.7,238.9,72.7L238.9,72.7z"/>
		<path opacity="0.1" fill="#231F20" enable-background="new    " d="M222.7,72.7l7.5-6l0.1-0.3l-7.7-5.5v11.6L222.7,72.7z"/>
		<path fill="#D54B3D" d="M221.4,72.7c-0.7,0-1.2-0.601-1.2-1.2V58.8c0-0.7,0.6-0.8,1.2-0.8c0.6,0,1.199,0.1,1.199,0.8v13.9H221.4
			L221.4,72.7z"/>
		<path fill="#D72B27" d="M221.4,58.2c0.898,0,1.1,0.3,1.1,0.6v13.7h-1.1c-0.602,0-1.102-0.5-1.102-1.1V58.8
			C220.4,58.4,220.5,58.2,221.4,58.2L221.4,58.2z M221.4,58c-0.7,0-1.2,0.1-1.2,0.8V71.4c0,0.699,0.6,1.199,1.2,1.199h1.199V58.8
			C222.7,58.1,222.1,58,221.4,58L221.4,58L221.4,58z"/>
		<path fill="#D54B3D" d="M238.9,72.7h-1.2V58.8c0-0.7,0.6-0.8,1.2-0.8c0.6,0,1.199,0.1,1.199,0.8v12.7
			C240.2,72.2,239.6,72.7,238.9,72.7L238.9,72.7z"/>
		<path fill="#D72B27" d="M238.9,58.2c0.8,0,1.1,0.2,1.1,0.6v12.7c0,0.6-0.5,1.1-1.1,1.1H237.8V58.8
			C237.8,58.3,238.1,58.2,238.9,58.2L238.9,58.2z M238.9,58c-0.7,0-1.2,0.1-1.2,0.8v13.9h1.2c0.699,0,1.199-0.601,1.199-1.3V58.8
			C240.2,58.1,239.6,58,238.9,58L238.9,58L238.9,58z"/>
		
			<linearGradient id="SVGID_3_" gradientUnits="userSpaceOnUse" x1="144.6504" y1="40.9951" x2="144.728" y2="40.9951" gradientTransform="matrix(253.1598 0 0 -174.8345 -36399.3906 7233.1475)">
			<stop  offset="0" style="stop-color:#000000;stop-opacity:0.1"/>
			<stop  offset="1" style="stop-color:#000000;stop-opacity:0.2"/>
		</linearGradient>
		<path fill="url(#SVGID_3_)" d="M233.6,72.7l-13.3-13.4l0.7,0.3l9.2,6.7L240.1,59v12.5c0,0.7-0.6,1.2-1.199,1.2H233.6z"/>
		<path fill="#D54B3D" d="M230.1,66.7l-9.398-6.8c-0.602-0.4-0.7-1.2-0.301-1.7c0.399-0.6,1.199-0.7,1.801-0.3l8,5.8l8-5.9
			c0.6-0.4,1.3-0.3,1.699,0.3s0.301,1.3-0.301,1.7L230.1,66.7L230.1,66.7z"/>
		<path fill="#D72B27" d="M238.9,57.7L238.9,57.7c0.3,0,0.699,0.2,0.898,0.4c0.301,0.5,0.2,1.1-0.199,1.5l-9.399,6.8l-9.3-6.8
			c-0.5-0.4-0.602-1-0.301-1.5c0.199-0.3,0.5-0.4,0.899-0.4c0.2,0,0.5,0.1,0.601,0.2l8,5.8l0.101,0.1l0.1-0.1l8-5.9
			C238.5,57.8,238.7,57.7,238.9,57.7L238.9,57.7z M238.9,57.5c-0.301,0-0.5,0.1-0.7,0.2l-8,5.9l-8-5.8c-0.2-0.2-0.5-0.2-0.8-0.2
			c-0.4,0-0.801,0.2-1,0.5c-0.4,0.6-0.2,1.3,0.3,1.7l9.399,6.9l9.5-6.9c0.601-0.4,0.699-1.2,0.301-1.7
			C239.7,57.7,239.3,57.5,238.9,57.5L238.9,57.5L238.9,57.5z"/>
	</g>
</g>
<g id="fb_3_">
	<path fill="#1877F2" d="M166,36c0,2.2-1.8,4-4,4h-32c-2.2,0-4-1.8-4-4V4c0-2.2,1.8-4,4-4h32c2.2,0,4,1.8,4,4V36z"/>
	<path fill="#FFFFFF" d="M150.3,20h-2.8c0,4.5,0,10,0,10h-4.2c0,0,0-5.5,0-10h-2v-3.5h2v-2.3c0-1.6,0.8-4.2,4.2-4.2h3.1v3.4
		c0,0-1.898,0-2.199,0c-0.399,0-0.899,0.2-0.899,1v2.1h3.2L150.3,20z"/>
</g>
</svg>
