<?xml version="1.0" encoding="utf-8"?>
<!-- Generator: Adobe Illustrator 24.0.2, SVG Export Plug-In . SVG Version: 6.00 Build 0)  -->
<svg version="1.1" id="Шар_1" xmlns="http://www.w3.org/2000/svg" xmlns:xlink="http://www.w3.org/1999/xlink" x="0px" y="0px"
	 viewBox="363 343.5 42 44.875" enable-background="new 363 343.5 42 44.875" xml:space="preserve">
<g>
	<path fill="#165B99" d="M369,347.75h30c2.8,0,5,2.2,5,5v30c0,2.8-2.2,5-5,5h-30c-2.8,0-5-2.2-5-5v-30
		C364,349.95,366.2,347.75,369,347.75z"/>
	<path fill="#039BE5" d="M369,344.75h30c2.8,0,5,2.2,5,5v30c0,2.8-2.2,5-5,5h-30c-2.8,0-5-2.2-5-5v-30
		C364,346.95,366.2,344.75,369,344.75z"/>
	<path fill="#FFFFFF" d="M373.141,363.349l19.283-7.435c0.896-0.323,1.677,0.218,1.387,1.571l0.002-0.002l-3.283,15.469
		c-0.243,1.097-0.896,1.363-1.807,0.847l-5-3.685l-3.065-2.273l9.267-8.372c0.403-0.355-0.09-0.555-0.621-0.202l-11.452,7.211
		l-4.936-1.54c-1.071-0.34-1.095-1.071,0.228-1.589H373.141z"/>
</g>
</svg>
