<?xml version="1.0" encoding="utf-8"?>
<!-- Generator: Adobe Illustrator 24.0.2, SVG Export Plug-In . SVG Version: 6.00 Build 0)  -->
<svg version="1.1" id="Capa_1" xmlns="http://www.w3.org/2000/svg" xmlns:xlink="http://www.w3.org/1999/xlink" x="0px" y="0px"
	 viewBox="0 0 45 45" enable-background="new 0 0 45 45" xml:space="preserve">
<g>
	<path fill="#3F147C" d="M7.5,4h30c2.8,0,5,2.2,5,5v30c0,2.8-2.2,5-5,5h-30c-2.8,0-5-2.2-5-5V9C2.5,6.2,4.7,4,7.5,4z"/>
	<path fill="#7D3DAF" d="M7.5,1h30c2.8,0,5,2.2,5,5v30c0,2.8-2.2,5-5,5h-30c-2.8,0-5-2.2-5-5V6C2.5,3.2,4.7,1,7.5,1z"/>
	<g>
		<path fill="#FFFFFF" d="M34.729,14.158l-0.008-0.031c-0.618-2.497-3.402-5.176-5.96-5.733l-0.028-0.006
			c-4.137-0.79-8.33-0.79-12.466,0l-0.03,0.006c-2.556,0.557-5.341,3.237-5.959,5.733l-0.007,0.031
			c-0.764,3.487-0.764,7.024,0,10.511l0.007,0.03c0.592,2.39,3.169,4.947,5.63,5.649v2.787c0,1.009,1.231,1.505,1.93,0.777
			l2.823-2.937c0.613,0.035,1.226,0.054,1.839,0.054c2.083,0,4.165-0.197,6.233-0.591l0.028-0.006
			c2.558-0.559,5.342-3.237,5.96-5.734l0.008-0.03C35.493,21.182,35.493,17.645,34.729,14.158z M32.494,24.162
			c-0.413,1.63-2.526,3.655-4.207,4.029c-2.199,0.418-4.416,0.597-6.631,0.536c-0.043-0.002-0.085,0.015-0.116,0.047
			c-0.314,0.323-2.062,2.117-2.062,2.117l-2.193,2.251c-0.161,0.166-0.442,0.053-0.442-0.178v-4.617c0-0.077-0.055-0.142-0.13-0.156
			c0,0,0,0-0.001,0c-1.68-0.374-3.794-2.399-4.207-4.029c-0.688-3.151-0.688-6.347,0-9.498c0.413-1.629,2.527-3.655,4.207-4.029
			c3.841-0.731,7.735-0.731,11.575,0c1.682,0.374,3.794,2.399,4.207,4.029C33.183,17.815,33.183,21.011,32.494,24.162z"/>
		<path fill="#FFFFFF" d="M26.154,26.294c-0.258-0.077-0.504-0.131-0.732-0.225c-2.369-0.984-4.549-2.251-6.275-4.194
			c-0.982-1.106-1.751-2.354-2.4-3.674c-0.308-0.626-0.567-1.277-0.832-1.923c-0.242-0.589,0.113-1.198,0.488-1.642
			c0.351-0.417,0.804-0.736,1.292-0.971c0.383-0.184,0.759-0.078,1.038,0.246c0.603,0.7,1.157,1.436,1.605,2.247
			c0.276,0.5,0.2,1.109-0.299,1.449c-0.123,0.083-0.233,0.18-0.346,0.273c-0.1,0.082-0.193,0.165-0.261,0.275
			c-0.125,0.203-0.131,0.441-0.051,0.662c0.617,1.694,1.655,3.011,3.36,3.721c0.273,0.114,0.548,0.246,0.862,0.21
			c0.526-0.063,0.696-0.64,1.065-0.941c0.361-0.295,0.821-0.299,1.21-0.053c0.388,0.245,0.766,0.51,1.14,0.776
			c0.367,0.262,0.733,0.518,1.072,0.816c0.326,0.287,0.438,0.663,0.255,1.054c-0.337,0.713-0.825,1.307-1.53,1.686
			C26.617,26.19,26.379,26.225,26.154,26.294C25.896,26.216,26.379,26.225,26.154,26.294z"/>
		<path fill="#FFFFFF" d="M22.506,12.849c3.099,0.087,5.644,2.143,6.188,5.206c0.094,0.522,0.126,1.056,0.168,1.585
			c0.017,0.223-0.109,0.435-0.349,0.438c-0.249,0.003-0.361-0.204-0.377-0.428c-0.032-0.44-0.055-0.883-0.115-1.321
			c-0.32-2.308-2.161-4.217-4.457-4.627c-0.346-0.062-0.701-0.078-1.05-0.115c-0.222-0.023-0.512-0.037-0.561-0.312
			c-0.042-0.231,0.152-0.414,0.372-0.426C22.387,12.846,22.447,12.848,22.506,12.849C25.604,12.936,22.447,12.848,22.506,12.849z"/>
		<path fill="#FFFFFF" d="M27.214,18.952c-0.005,0.039-0.006,0.13-0.029,0.215c-0.083,0.312-0.555,0.35-0.662,0.036
			c-0.033-0.093-0.037-0.199-0.038-0.299c0-0.656-0.143-1.311-0.475-1.882c-0.34-0.587-0.859-1.08-1.469-1.379
			c-0.368-0.18-0.768-0.293-1.172-0.359c-0.176-0.03-0.354-0.047-0.532-0.072c-0.215-0.03-0.329-0.167-0.319-0.379
			c0.01-0.199,0.154-0.341,0.371-0.329c0.711,0.04,1.397,0.194,2.029,0.529c1.286,0.681,2.021,1.755,2.234,3.19
			c0.01,0.065,0.025,0.129,0.03,0.194C27.195,18.578,27.202,18.74,27.214,18.952C27.209,18.991,27.202,18.74,27.214,18.952z"/>
		<path fill="#FFFFFF" d="M25.288,18.877c-0.259,0.005-0.398-0.139-0.425-0.377c-0.019-0.166-0.034-0.333-0.072-0.495
			c-0.079-0.317-0.247-0.612-0.515-0.806c-0.126-0.092-0.27-0.159-0.419-0.202c-0.189-0.055-0.388-0.04-0.577-0.086
			c-0.205-0.051-0.319-0.218-0.287-0.411c0.029-0.176,0.2-0.313,0.392-0.299c1.201,0.086,2.06,0.707,2.183,2.122
			c0.008,0.1,0.017,0.205-0.004,0.301C25.526,18.787,25.406,18.869,25.288,18.877C25.029,18.882,25.406,18.869,25.288,18.877z"/>
	</g>
</g>
</svg>
